<svg xmlns="http://www.w3.org/2000/svg">
<symbol viewBox="0 0 11 19" id="icon-facebook"><path d="M9.6315 10.7763L10.1411 7.42742H6.90146V5.24338C6.90146 4.29697 7.33827 3.42335 8.79429 3.42335H10.2867V0.547704C10.2867 0.547704 8.93989 0.2929 7.66587 0.2929C5.00863 0.2929 3.2614 1.93093 3.2614 4.84298V7.42742H0.276547V10.7763H3.2614V18.93H6.90146V10.7763H9.6315Z"/>
</symbol>
<symbol viewBox="0 0 20 16" id="icon-twitter"><path d="M17.6892 4.37425C18.4172 3.82824 19.0724 3.17303 19.582 2.40862C18.9268 2.69983 18.1624 2.91823 17.398 2.99103C18.1988 2.51782 18.7812 1.78981 19.0724 0.879796C18.3444 1.3166 17.5072 1.64421 16.6699 1.82621C15.9419 1.0618 14.9591 0.624991 13.8671 0.624991C11.7559 0.624991 10.045 2.33582 10.045 4.44706C10.045 4.73826 10.0814 5.02947 10.1542 5.32067C6.98738 5.13867 4.14813 3.60984 2.2553 1.3166C1.92769 1.86261 1.74569 2.51782 1.74569 3.24584C1.74569 4.55626 2.4009 5.72108 3.45652 6.41269C2.83771 6.37629 2.2189 6.23069 1.70929 5.93948V5.97588C1.70929 7.83231 3.01971 9.36114 4.76694 9.72514C4.47573 9.79794 4.11173 9.87075 3.78412 9.87075C3.52932 9.87075 3.31091 9.83435 3.05611 9.79794C3.52932 11.3268 4.94894 12.4188 6.62337 12.4552C5.31295 13.4744 3.67492 14.0932 1.89129 14.0932C1.56369 14.0932 1.27248 14.0568 0.981276 14.0204C2.6557 15.1124 4.65774 15.7312 6.84177 15.7312C13.8671 15.7312 17.6892 9.94355 17.6892 4.88386C17.6892 4.70186 17.6892 4.55626 17.6892 4.37425Z"/>
</symbol>
<symbol viewBox="0 0 17 17" id="icon-instagram"><path d="M8.29983 4.52228C5.97019 4.52228 4.11376 6.41511 4.11376 8.70835C4.11376 11.038 5.97019 12.8944 8.29983 12.8944C10.5931 12.8944 12.4859 11.038 12.4859 8.70835C12.4859 6.41511 10.5931 4.52228 8.29983 4.52228ZM8.29983 11.4384C6.80741 11.4384 5.56979 10.2372 5.56979 8.70835C5.56979 7.21592 6.77101 6.0147 8.29983 6.0147C9.79226 6.0147 10.9935 7.21592 10.9935 8.70835C10.9935 10.2372 9.79226 11.4384 8.29983 11.4384ZM13.6143 4.37668C13.6143 3.83067 13.1775 3.39386 12.6315 3.39386C12.0855 3.39386 11.6487 3.83067 11.6487 4.37668C11.6487 4.92269 12.0855 5.35949 12.6315 5.35949C13.1775 5.35949 13.6143 4.92269 13.6143 4.37668ZM16.3808 5.35949C16.308 4.04907 16.0168 2.88425 15.0703 1.93784C14.1239 0.99142 12.9591 0.700215 11.6487 0.627414C10.3019 0.554612 6.2614 0.554612 4.91458 0.627414C3.60415 0.700215 2.47573 0.99142 1.49292 1.93784C0.546502 2.88425 0.255297 4.04907 0.182496 5.35949C0.109695 6.70632 0.109695 10.7468 0.182496 12.0936C0.255297 13.404 0.546502 14.5324 1.49292 15.5153C2.47573 16.4617 3.60415 16.7529 4.91458 16.8257C6.2614 16.8985 10.3019 16.8985 11.6487 16.8257C12.9591 16.7529 14.1239 16.4617 15.0703 15.5153C16.0168 14.5324 16.308 13.404 16.3808 12.0936C16.4536 10.7468 16.4536 6.70632 16.3808 5.35949ZM14.6335 13.5132C14.3787 14.2412 13.7963 14.7873 13.1047 15.0785C12.0127 15.5153 9.46465 15.4061 8.29983 15.4061C7.09861 15.4061 4.55057 15.5153 3.49495 15.0785C2.76694 14.7873 2.22093 14.2412 1.92973 13.5132C1.49292 12.4576 1.60212 9.90957 1.60212 8.70835C1.60212 7.54353 1.49292 4.99549 1.92973 3.90347C2.22093 3.21186 2.76694 2.66585 3.49495 2.37464C4.55057 1.93784 7.09861 2.04704 8.29983 2.04704C9.46465 2.04704 12.0127 1.93784 13.1047 2.37464C13.7963 2.62945 14.3423 3.21186 14.6335 3.90347C15.0703 4.99549 14.9611 7.54353 14.9611 8.70835C14.9611 9.90957 15.0703 12.4576 14.6335 13.5132Z"/>
</symbol>
<symbol viewBox="0 0 10 10" id="icon-circle"><circle cx="4.91227" cy="5.44199" r="4.65928"/></symbol>
</svg>
